0
SECTION
2
HEADER
9
$INSUNITS
70
4
9
$ACADVER
1
AC1014
9
$HANDSEED
5
FFFF
0
ENDSEC
0
SECTION
2
TABLES
0
TABLE
2
VPORT
5
8
100
AcDbSymbolTable
0
ENDTAB
0
TABLE
2
LTYPE
5
5
100
AcDbSymbolTable
0
LTYPE
5
14
100
AcDbSymbolTableRecord
100
AcDbLinetypeTableRecord
2
BYBLOCK
70
0
0
LTYPE
5
15
100
AcDbSymbolTableRecord
100
AcDbLinetypeTableRecord
2
BYLAYER
70
0
0
ENDTAB
0
TABLE
2
LAYER
5
2
100
AcDbSymbolTable
70
2
0
LAYER
5
50
100
AcDbSymbolTableRecord
100
AcDbLayerTableRecord
2
0
70
0
6
CONTINUOUS
0
ENDTAB
0
TABLE
2
STYLE
5
3
100
AcDbSymbolTable
70
1
0
STYLE
5
11
100
AcDbSymbolTableRecord
100
AcDbTextStyleTableRecord
2
STANDARD
70
0
0
ENDTAB
0
TABLE
2
VIEW
5
6
100
AcDbSymbolTable
70
0
0
ENDTAB
0
TABLE
2
UCS
5
7
100
AcDbSymbolTable
70
0
0
ENDTAB
0
TABLE
2
APPID
5
9
100
AcDbSymbolTable
70
2
0
APPID
5
12
100
AcDbSymbolTableRecord
100
AcDbRegAppTableRecord
2
ACAD
70
0
0
ENDTAB
0
TABLE
2
DIMSTYLE
5
A
100
AcDbSymbolTable
70
1
0
ENDTAB
0
TABLE
2
BLOCK_RECORD
5
1
100
AcDbSymbolTable
70
1
0
BLOCK_RECORD
5
1F
100
AcDbSymbolTableRecord
100
AcDbBlockTableRecord
2
*MODEL_SPACE
0
BLOCK_RECORD
5
1B
100
AcDbSymbolTableRecord
100
AcDbBlockTableRecord
2
*PAPER_SPACE
0
ENDTAB
0
ENDSEC
0
SECTION
2
BLOCKS
0
BLOCK
5
20
100
AcDbEntity
100
AcDbBlockBegin
2
*MODEL_SPACE
0
ENDBLK
5
21
100
AcDbEntity
100
AcDbBlockEnd
0
BLOCK
5
1C
100
AcDbEntity
100
AcDbBlockBegin
2
*PAPER_SPACE
0
ENDBLK
5
1D
100
AcDbEntity
100
AcDbBlockEnd
0
ENDSEC
0
SECTION
2
ENTITIES
0
SPLINE
5
100
100
AcDbEntity
8
0
100
AcDbSpline
70
0
71
3
72
17
73
13
74
0
42
0.000000001
43
0.0000000001
44
0.0000000001
40
-0.3808047412841411
40
-0.3808047412841411
40
-0.3808047412841411
40
-0.3808047412841411
40
0.056062014054067813
40
0.056062014054067813
40
0.056062014054067813
40
0.30553787912879654
40
0.30553787912879654
40
0.30553787912879654
40
0.6527689395643983
40
0.6527689395643983
40
0.6527689395643983
40
0.66909219461087621
40
0.66909219461087621
40
0.66909219461087621
40
0.66909219461087621
10
84.515579217655244
20
-36.618477789272255
30
0
10
77.407180266503588
20
-42.420093984811189
30
0
10
70.298781315351974
20
-48.221710180350129
30
0
10
63.190382364200346
20
-54.02332637588907
30
0
10
59.3605762367838
20
-57.149074579849184
30
0
10
55.600876323726631
20
-60.572106667743171
30
0
10
51.970038201957394
20
-64.295091591475881
30
0
10
46.924364005159411
20
-69.468819621959511
30
0
10
42.129235463181914
20
-75.259052150332025
30
0
10
38.376234260321993
20
-80.901799761555836
30
0
10
38.19999003447591
20
-81.166788135028014
30
0
10
38.02601296928696
20
-81.431484722230522
30
0
10
37.854316211619491
20
-81.695847777209011
30
0
0
SPLINE
5
101
100
AcDbEntity
8
0
100
AcDbSpline
70
0
71
3
72
11
73
7
74
0
42
0.000000001
43
0.0000000001
44
0.0000000001
40
0.79597208451631019
40
0.79597208451631019
40
0.79597208451631019
40
0.79597208451631019
40
0.80060842411911937
40
0.80060842411911937
40
0.80060842411911937
40
2.2718831387444451
40
2.2718831387444451
40
2.2718831387444451
40
2.2718831387444451
10
37.854316211617942
20
-81.69584777720803
30
0
10
37.883854199324595
20
-81.688792232444527
30
0
10
37.913341373592786
20
-81.681781425174734
30
0
10
37.94277792812678
20
-81.674815394441453
30
0
10
45.546268793276084
20
-79.875482833774527
30
0
10
53.14975965842541
20
-78.076150273107615
30
0
10
60.753250523574721
20
-76.276817712440703
30
0
0
SPLINE
5
102
100
AcDbEntity
8
0
100
AcDbSpline
70
0
71
3
72
23
73
19
74
0
42
0.000000001
43
0.0000000001
44
0.0000000001
40
-0.29618747679670565
40
-0.29618747679670565
40
-0.29618747679670565
40
-0.29618747679670565
40
0.040689841387334079
40
0.040689841387334079
40
0.040689841387334079
40
0.25929143735412202
40
0.25929143735412202
40
0.25929143735412202
40
0.49827456002070936
40
0.49827456002070936
40
0.49827456002070936
40
0.72431980668819351
40
0.72431980668819351
40
0.72431980668819351
40
0.96701064935235637
40
0.96701064935235637
40
0.96701064935235637
40
1.2236184247966619
40
1.2236184247966619
40
1.2236184247966619
40
1.2236184247966619
10
60.753250523574735
20
-76.276817712440689
30
0
10
55.836312873830806
20
-82.349246810323677
30
0
10
50.919375224086885
20
-88.421675908206666
30
0
10
46.002437574342963
20
-94.494105006089683
30
0
10
43.016410479184856
20
-98.181855209846987
30
0
10
39.788625781877812
20
-102.63115959782156
30
0
10
36.376033064606737
20
-107.80999978473335
30
0
10
32.647963489103944
20
-113.46759743460957
30
0
10
28.678100462024389
20
-120.03950655979799
30
0
10
24.82878033023125
20
-126.87774642669515
30
0
10
21.18726507345686
20
-133.3468251086984
30
0
10
17.680675252258204
20
-140.00093854235834
30
0
10
14.563054794333926
20
-146.32948888012413
30
0
10
11.214297921366851
20
-153.12722988982404
30
0
10
8.2966944803230298
20
-159.57256551080565
30
0
10
5.8103627422477766
20
-165.60272860718001
30
0
10
3.1023053215380325
20
-172.17064859595359
30
0
10
0.39424790082828925
20
-178.7385685847272
30
0
10
-2.3138095198814512
20
-185.30648857350084
30
0
0
SPLINE
5
103
100
AcDbEntity
8
0
100
AcDbSpline
70
0
71
3
72
20
73
16
74
0
42
0.000000001
43
0.0000000001
44
0.0000000001
40
-0.19532349532159432
40
-0.19532349532159432
40
-0.19532349532159432
40
-0.19532349532159432
40
0.028336187633243613
40
0.028336187633243613
40
0.028336187633243613
40
0.36494642653915554
40
0.36494642653915554
40
0.36494642653915554
40
0.78254638773504004
40
0.78254638773504004
40
0.78254638773504004
40
0.97358602167561281
40
0.97358602167561281
40
0.97358602167561281
40
1.1885309849040864
40
1.1885309849040864
40
1.1885309849040864
40
1.1885309849040864
10
-2.3138095198814943
20
-185.3064885735007
30
0
10
-4.5963626015110695
20
-178.57885158847125
30
0
10
-6.8789156831406419
20
-171.85121460344186
30
0
10
-9.1614687647702162
20
-165.12357761841244
30
0
10
-12.497054883171826
20
-155.29221259233015
30
0
10
-16.252584728823074
20
-146.10452867610707
30
0
10
-20.435942634363396
20
-137.61163465712724
30
0
10
-25.630961114904252
20
-127.06490583828939
30
0
10
-31.534675644479812
20
-117.42881824035906
30
0
10
-37.750477647830365
20
-108.10390228908874
30
0
10
-40.59074778009002
20
-103.84294284283413
30
0
10
-43.485839102705846
20
-99.672400077210327
30
0
10
-46.42795146544411
20
-95.576736615170489
30
0
10
-49.795060651444004
20
-90.889442465410866
30
0
10
-53.162169837443898
20
-86.202148315651229
30
0
10
-56.529279023443799
20
-81.514854165891606
30
0
0
SPLINE
5
104
100
AcDbEntity
8
0
100
AcDbSpline
70
0
71
3
72
11
73
7
74
0
42
0.000000001
43
0.0000000001
44
0.0000000001
40
-0.87270394619395208
40
-0.87270394619395208
40
-0.87270394619395208
40
-0.87270394619395208
40
0.12118739671727465
40
0.12118739671727465
40
0.12118739671727465
40
0.14252826475388272
40
0.14252826475388272
40
0.14252826475388272
40
0.14252826475388272
10
-56.529279023443806
20
-81.514854165891663
30
0
10
-50.777442372512454
20
-81.988695761594741
30
0
10
-45.025605721581101
20
-82.462537357297833
30
0
10
-39.273769070649756
20
-82.936378953000926
30
0
10
-39.132931566498698
20
-82.947981276180769
30
0
10
-38.992038239741248
20
-82.96005060654096
30
0
10
-38.851089966754778
20
-82.972589555570764
30
0
0
SPLINE
5
105
100
AcDbEntity
8
0
100
AcDbSpline
70
0
71
3
72
14
73
10
74
0
42
0.000000001
43
0.0000000001
44
0.0000000001
40
0.35491509941042843
40
0.35491509941042843
40
0.35491509941042843
40
0.35491509941042843
40
0.65589720832500187
40
0.65589720832500187
40
0.65589720832500187
40
0.93613535015102689
40
0.93613535015102689
40
0.93613535015102689
40
1.4297198903903272
40
1.4297198903903272
40
1.4297198903903272
40
1.4297198903903272
10
-38.85108996675477
20
-82.972589555570764
30
0
10
-41.962480570689834
20
-78.563034186453692
30
0
10
-45.596096107638672
20
-73.844691843328036
30
0
10
-49.372645739996258
20
-69.462918865879217
30
0
10
-52.891255909869415
20
-65.380422285289598
30
0
10
-56.553665434193981
20
-61.558136904958161
30
0
10
-60.278542065607695
20
-58.059073102843385
30
0
10
-67.21152198321937
20
-51.546390544200733
30
0
10
-74.144501900831031
20
-45.033707985558081
30
0
10
-81.077481818442706
20
-38.521025426915443
30
0
0
LINE
5
106
100
AcDbEntity
8
0
100
AcDbLine
10
-81.077481818442706
20
-38.521025426915443
30
0
11
-54.227138074956883
21
-44.173729372959272
31
0
0
SPLINE
5
107
100
AcDbEntity
8
0
100
AcDbSpline
70
0
71
3
72
14
73
10
74
0
42
0.000000001
43
0.0000000001
44
0.0000000001
40
0.32813480164145797
40
0.32813480164145797
40
0.32813480164145797
40
0.32813480164145797
40
0.65730789322084204
40
0.65730789322084204
40
0.65730789322084204
40
0.92959499217233454
40
0.92959499217233454
40
0.92959499217233454
40
1.4709093936529218
40
1.4709093936529218
40
1.4709093936529218
40
1.4709093936529218
10
-54.227138074956883
20
-44.173729372959272
30
0
10
-58.768950856244196
20
-38.910896093200321
30
0
10
-63.630319440900173
20
-33.596263788573097
30
0
10
-68.282928154780663
20
-29.155102404866273
30
0
10
-72.123825220858933
20
-25.488762770981079
30
0
10
-75.84021677158637
20
-22.414943877122688
30
0
10
-79.309414560088285
20
-20.013130978105838
30
0
10
-87.04719441912026
20
-14.656071332567116
30
0
10
-94.784974278152248
20
-9.2990116870283916
30
0
10
-102.52275413718421
20
-3.9419520414896656
30
0
0
LINE
5
108
100
AcDbEntity
8
0
100
AcDbLine
10
-102.52275413718419
20
-3.9419520414896669
30
0
11
-80.396181816359515
21
-5.1231453283977348
31
0
0
LINE
5
109
100
AcDbEntity
8
0
100
AcDbLine
10
-80.396181816359515
20
-5.1231453283977348
30
0
11
-89.497105631242491
21
3.4089707482185294
31
0
0
LINE
5
110
100
AcDbEntity
8
0
100
AcDbLine
10
-89.497105631242491
20
3.4089707482185294
30
0
11
-67.23474144593493
21
-0.16957483900916448
31
0
0
SPLINE
5
111
100
AcDbEntity
8
0
100
AcDbSpline
70
0
71
3
72
20
73
16
74
0
42
0.000000001
43
0.0000000001
44
0.0000000001
40
0.32698134672500107
40
0.32698134672500107
40
0.32698134672500107
40
0.32698134672500107
40
0.42110818961957541
40
0.42110818961957541
40
0.42110818961957541
40
0.64170837548627369
40
0.64170837548627369
40
0.64170837548627369
40
0.88364275114664914
40
0.88364275114664914
40
0.88364275114664914
40
0.93928558545621776
40
0.93928558545621776
40
0.93928558545621776
40
1.4184447112188656
40
1.4184447112188656
40
1.4184447112188656
40
1.4184447112188656
10
-67.23474144593493
20
-0.16957483900915282
30
0
10
-68.570875274002475
20
1.8494261673507741
30
0
10
-70.034996011143093
20
3.9824975256565049
30
0
10
-71.604233494312638
20
6.1799398974158439
30
0
10
-75.275325055727322
20
11.320660938164238
30
0
10
-79.499055909021706
20
16.753896108649499
30
0
10
-83.897161019921214
20
21.77927599647596
30
0
10
-88.723461382527077
20
27.293922000443033
30
0
10
-93.808807059785465
20
32.386289152990564
30
0
10
-98.977741375229584
20
36.886578254739554
30
0
10
-100.16823363308505
20
37.923070306444629
30
0
10
-101.36507348401423
20
38.930846849167047
30
0
10
-102.56794809229284
20
39.910266925534984
30
0
10
-113.5186630102541
20
48.826699251412997
30
0
10
-124.46937792821538
20
57.743131577291003
30
0
10
-135.42009284617663
20
66.659563903169001
30
0
0
SPLINE
5
112
100
AcDbEntity
8
0
100
AcDbSpline
70
0
71
3
72
11
73
7
74
0
42
0.000000001
43
0.0000000001
44
0.0000000001
40
-1.3365638865689036
40
-1.3365638865689036
40
-1.3365638865689036
40
-1.3365638865689036
40
0.18751575663412137
40
0.18751575663412137
40
0.18751575663412137
40
0.30935958290656224
40
0.30935958290656224
40
0.30935958290656224
40
0.30935958290656224
10
-135.42009284617649
20
66.659563903168959
30
0
10
-121.97193662043577
20
62.350501735540014
30
0
10
-108.52378039469507
20
58.041439567911084
30
0
10
-95.075624168954363
20
53.732377400282147
30
0
10
-93.9364844239756
20
53.367373908626163
30
0
10
-92.809354688675654
20
52.99039119344787
30
0
10
-91.694804487986033
20
52.600563926379102
30
0
0
LINE
5
113
100
AcDbEntity
8
0
100
AcDbLine
10
-91.694804487986019
20
52.600563926379102
30
0
11
-97.750161329356985
21
64.110356517980648
31
0
0
LINE
5
114
100
AcDbEntity
8
0
100
AcDbLine
10
-97.750161329356985
20
64.110356517980648
30
0
11
-86.812143533380137
21
59.464487018120622
31
0
0
SPLINE
5
115
100
AcDbEntity
8
0
100
AcDbSpline
70
0
71
3
72
11
73
7
74
0
42
0.000000001
43
0.0000000001
44
0.0000000001
40
0.81114544371858432
40
0.81114544371858432
40
0.81114544371858432
40
0.81114544371858432
40
0.95823716488209276
40
0.95823716488209276
40
0.95823716488209276
40
0.99525138509049438
40
0.99525138509049438
40
0.99525138509049438
40
0.99525138509049438
10
-86.812143533380123
20
59.464487018120629
30
0
10
-88.291035625052274
20
61.239540387545333
30
0
10
-89.843369539748778
20
63.071278579130365
30
0
10
-91.459451073272362
20
64.952625242041208
30
0
10
-91.865741259888239
20
65.425604278622757
30
0
10
-92.276168829779479
20
65.901738552896148
30
0
10
-92.690717467345138
20
66.381013338351181
30
0
0
SPLINE
5
116
100
AcDbEntity
8
0
100
AcDbSpline
70
0
71
3
72
14
73
10
74
0
42
0.000000001
43
0.0000000001
44
0.0000000001
40
0.0057558993755293612
40
0.0057558993755293612
40
0.0057558993755293612
40
0.0057558993755293612
40
0.66774553370367107
40
0.66774553370367107
40
0.66774553370367107
40
0.91006440340224337
40
0.91006440340224337
40
0.91006440340224337
40
1.6604708075664576
40
1.6604708075664576
40
1.6604708075664576
40
1.6604708075664576
10
-92.690717467345848
20
66.381013338350471
30
0
10
-99.256403263074475
20
72.966318663612029
30
0
10
-105.79613702679764
20
78.87409340437452
30
0
10
-112.25669995543805
20
83.826474390773441
30
0
10
-114.63494664530776
20
85.649532817410488
30
0
10
-117.01897665305913
20
87.369172480861749
30
0
10
-119.41093519925317
20
89.003442922934994
30
0
10
-127.17133089045913
20
94.305618964869467
30
0
10
-134.93172658166506
20
99.607795006803912
30
0
10
-142.69212227287096
20
104.90997104873834
30
0
0
SPLINE
5
117
100
AcDbEntity
8
0
100
AcDbSpline
70
0
71
3
72
17
73
13
74
0
42
0.000000001
43
0.0000000001
44
0.0000000001
40
-0.62156832803659623
40
-0.62156832803659623
40
-0.62156832803659623
40
-0.62156832803659623
40
0.087493005834815452
40
0.087493005834815452
40
0.087493005834815452
40
0.26982096539818334
40
0.26982096539818334
40
0.26982096539818334
40
0.59486622933377586
40
0.59486622933377586
40
0.59486622933377586
40
0.61238379920455399
40
0.61238379920455399
40
0.61238379920455399
40
0.61238379920455399
10
-142.69212227287082
20
104.9099710487383
30
0
10
-133.30350041449168
20
104.47340299663709
30
0
10
-123.91487855611253
20
104.03683494453588
30
0
10
-114.52625669773337
20
103.60026689243468
30
0
10
-111.71929157050143
20
103.46974387037707
30
0
10
-108.73757888392342
20
103.12537502378389
30
0
10
-105.57834958807904
20
102.5666831224558
30
0
10
-99.935533114116055
20
101.56878282163538
30
0
10
-93.701751711773682
20
99.887378156020716
30
0
10
-87.759476507115494
20
97.554684275085521
30
0
10
-87.438268028629253
20
97.428590981445723
30
0
10
-87.1185001297345
20
97.300694396034459
30
0
10
-86.800274517568553
20
97.171023961874582
30
0
0
LINE
5
118
100
AcDbEntity
8
0
100
AcDbLine
10
-86.800274517568553
20
97.171023961874567
30
0
11
-92.21647791501924
21
111.58880483676656
31
0
0
SPLINE
5
119
100
AcDbEntity
8
0
100
AcDbSpline
70
0
71
3
72
11
73
7
74
0
42
0.000000001
43
0.0000000001
44
0.0000000001
40
-0.60389064736156817
40
-0.60389064736156817
40
-0.60389064736156817
40
-0.60389064736156817
40
0.083909295414617169
40
0.083909295414617169
40
0.083909295414617169
40
0.2647927834806077
40
0.2647927834806077
40
0.2647927834806077
40
0.2647927834806077
10
-92.216477915019226
20
111.58880483676654
30
0
10
-86.234024326364604
20
108.72028981868777
30
0
10
-80.251570737709983
20
105.85177480060899
30
0
10
-74.269117149055376
20
102.98325978253021
30
0
10
-72.587371406623532
20
102.1768827923427
30
0
10
-70.934246887472554
20
101.3376340306834
30
0
10
-69.312734447271708
20
100.46071755697817
30
0
0
LINE
5
120
100
AcDbEntity
8
0
100
AcDbLine
10
-69.312734447271708
20
100.46071755697817
30
0
11
-77.064513510754821
21
114.80576534244128
31
0
0
SPLINE
5
121
100
AcDbEntity
8
0
100
AcDbSpline
70
0
71
3
72
14
73
10
74
0
42
0.000000001
43
0.0000000001
44
0.0000000001
40
-0.67383566340274648
40
-0.67383566340274648
40
-0.67383566340274648
40
-0.67383566340274648
40
0.099448354003084688
40
0.099448354003084688
40
0.099448354003084688
40
0.54009469148521472
40
0.54009469148521472
40
0.54009469148521472
40
0.64407173595200595
40
0.64407173595200595
40
0.64407173595200595
40
0.64407173595200595
10
-77.064513510754836
20
114.80576534244123
30
0
10
-70.814576761870086
20
112.8613895901594
30
0
10
-64.56464001298535
20
110.91701383787758
30
0
10
-58.314703264100615
20
108.97263808559573
30
0
10
-54.350974242073363
20
107.73950903026235
30
0
10
-50.011340688851504
20
106.04904908907076
30
0
10
-45.168631110681723
20
103.83526166218479
30
0
10
-44.030783873902386
20
103.31510825099241
30
0
10
-42.87013443778109
20
102.76951659906078
30
0
10
-41.686741463929266
20
102.1998352277481
30
0
0
LINE
5
122
100
AcDbEntity
8
0
100
AcDbLine
10
-41.686741463929252
20
102.1998352277481
30
0
11
-47.031068996359039
21
120.32259851726721
31
0
0
SPLINE
5
123
100
AcDbEntity
8
0
100
AcDbSpline
70
0
71
3
72
11
73
7
74
0
42
0.000000001
43
0.0000000001
44
0.0000000001
40
-1.7134468594711509
40
-1.7134468594711509
40
-1.7134468594711509
40
-1.7134468594711509
40
0.21447167506508694
40
0.21447167506508694
40
0.21447167506508694
40
0.3706518158530997
40
0.3706518158530997
40
0.3706518158530997
40
0.3706518158530997
10
-47.031068996359046
20
120.3225985172672
30
0
10
-41.189670682605062
20
116.85280070039173
30
0
10
-35.348272368851077
20
113.3830028835163
30
0
10
-29.5068740550971
20
109.91320506664084
30
0
10
-28.70465923104371
20
109.4366884698165
30
0
10
-27.935456864083193
20
108.90142192322871
30
0
10
-27.204168221125968
20
108.31981399930416
30
0
0
LINE
5
124
100
AcDbEntity
8
0
100
AcDbLine
10
-21.795232398756596
20
118.73702373127483
30
0
11
-27.204168221125968
21
108.31981399930416
31
0
0
LINE
5
125
100
AcDbEntity
8
0
100
AcDbLine
10
-21.718273220000395
20
118.60628210147036
30
0
11
-21.795232398756596
21
118.73702373127483
31
0
0
LINE
5
126
100
AcDbEntity
8
0
100
AcDbLine
10
18.240733912667466
20
109.35127459562635
30
0
11
32.43028758413702
21
124.63233239567055
31
0
0
SPLINE
5
127
100
AcDbEntity
8
0
100
AcDbSpline
70
0
71
3
72
14
73
10
74
0
42
0.000000001
43
0.0000000001
44
0.0000000001
40
-1.0049557900800239
40
-1.0049557900800239
40
-1.0049557900800239
40
-1.0049557900800239
40
0.14841070904901202
40
0.14841070904901202
40
0.14841070904901202
40
0.34755126662779851
40
0.34755126662779851
40
0.34755126662779851
40
0.42912764030096368
40
0.42912764030096368
40
0.42912764030096368
40
0.42912764030096368
10
32.43028758413702
20
124.63233239567052
30
0
10
32.410856882792032
20
117.81305664156474
30
0
10
32.391426181447045
20
110.993780887459
30
0
10
32.371995480102058
20
104.17450513335325
30
0
10
32.368573967896367
20
102.97371290190624
30
0
10
32.361497595430279
20
101.82579298233213
30
0
10
32.388677893334268
20
100.69491875884682
30
0
10
32.399316523157921
20
100.25228371918416
30
0
10
32.416875370809578
20
99.824269267848038
30
0
10
32.443866947659785
20
99.416977728914446
30
0
0
SPLINE
5
128
100
AcDbEntity
8
0
100
AcDbSpline
70
0
71
3
72
17
73
13
74
0
42
0.000000001
43
0.0000000001
44
0.0000000001
40
0.33578285064713204
40
0.33578285064713204
40
0.33578285064713204
40
0.33578285064713204
40
0.34256852019521666
40
0.34256852019521666
40
0.34256852019521666
40
0.70067339256709804
40
0.70067339256709804
40
0.70067339256709804
40
0.90610817345754413
40
0.90610817345754413
40
0.90610817345754413
40
1.5394948085722788
40
1.5394948085722788
40
1.5394948085722788
40
1.5394948085722788
10
32.443866947659792
20
99.41697772891446
30
0
10
32.510158055887253
20
99.465125968935723
30
0
10
32.576703051748282
20
99.5132612833373
30
0
10
32.643502114186965
20
99.561383543486542
30
0
10
36.183446503454995
20
102.11157090533121
30
0
10
40.363143446863532
20
104.57379126471957
30
0
10
44.871333149268423
20
106.65298861701538
30
0
10
47.44190248644113
20
107.83854674845144
30
0
10
50.083752274082265
20
108.88733183179129
30
0
10
52.775517114179166
20
109.80473642361622
30
0
10
60.304989589156115
20
112.37092367729716
30
0
10
67.834462064133049
20
114.93711093097812
30
0
10
75.363934539109991
20
117.50329818465906
30
0
0
LINE
5
129
100
AcDbEntity
8
0
100
AcDbLine
10
75.363934539109991
20
117.50329818465903
30
0
11
65.613269975921085
21
103.1095483412638
31
0
0
SPLINE
5
130
100
AcDbEntity
8
0
100
AcDbSpline
70
0
71
3
72
14
73
10
74
0
42
0.000000001
43
0.0000000001
44
0.0000000001
40
0.53809869074563765
40
0.53809869074563765
40
0.53809869074563765
40
0.53809869074563765
40
0.65408735543179808
40
0.65408735543179808
40
0.65408735543179808
40
0.81757748106598338
40
0.81757748106598338
40
0.81757748106598338
40
1.9754166590874793
40
1.9754166590874793
40
1.9754166590874793
40
1.9754166590874793
10
65.613269975921071
20
103.10954834126385
30
0
10
67.053724931507816
20
103.77263666994089
30
0
10
68.481552542439431
20
104.4106883517491
30
0
10
69.857692633776651
20
105.00586822696471
30
0
10
71.79637954103093
20
105.84434930807359
30
0
10
73.618564217421778
20
106.59244896194781
30
0
10
75.298206732824909
20
107.23756216885135
30
0
10
86.303303463202923
20
111.46437423088929
30
0
10
97.308400193580951
20
115.69118629292726
30
0
10
108.31349692395892
20
119.91799835496522
30
0
0
LINE
5
131
100
AcDbEntity
8
0
100
AcDbLine
10
108.31349692395895
20
119.91799835496523
30
0
11
88.36313549402459
21
98.892901079342437
31
0
0
SPLINE
5
132
100
AcDbEntity
8
0
100
AcDbSpline
70
0
71
3
72
14
73
10
74
0
42
0.000000001
43
0.0000000001
44
0.0000000001
40
0.60725153437719492
40
0.60725153437719492
40
0.60725153437719492
40
0.60725153437719492
40
0.64854256137263211
40
0.64854256137263211
40
0.64854256137263211
40
0.92869681173074192
40
0.92869681173074192
40
0.92869681173074192
40
1.4655554977665679
40
1.4655554977665679
40
1.4655554977665679
40
1.4655554977665679
10
88.363135494024561
20
98.892901079342451
30
0
10
89.052765451716027
20
99.094927860075416
30
0
10
89.755522237802566
20
99.290585743855488
30
0
10
90.473001324898092
20
99.479991289754082
30
0
10
95.331182872093891
20
100.76249073060339
30
0
10
100.76681836874806
20
101.74777068576162
30
0
10
106.81281838890469
20
102.52179467052601
30
0
10
117.91310250875196
20
103.94288069729028
30
0
10
129.01338662859925
20
105.36396672405454
30
0
10
140.11367074844651
20
106.78505275081881
30
0
0
SPLINE
5
133
100
AcDbEntity
8
0
100
AcDbSpline
70
0
71
3
72
20
73
16
74
0
42
0.000000001
43
0.0000000001
44
0.0000000001
40
-0.50566665728610616
40
-0.50566665728610616
40
-0.50566665728610616
40
-0.50566665728610616
40
0.087379688098417799
40
0.087379688098417799
40
0.087379688098417799
40
0.24868238096131398
40
0.24868238096131398
40
0.24868238096131398
40
0.48685257063764109
40
0.48685257063764109
40
0.48685257063764109
40
0.71548215110064572
40
0.71548215110064572
40
0.71548215110064572
40
0.75159287958746024
40
0.75159287958746024
40
0.75159287958746024
40
0.75159287958746024
10
140.11367074844625
20
106.78505275081859
30
0
10
130.84711135399871
20
100.51076633513969
30
0
10
121.5805519595512
20
94.236479919460777
30
0
10
112.3139925651037
20
87.962193503781876
30
0
10
110.19252422630684
20
86.525770402950968
30
0
10
107.83334806730124
20
84.644127932179885
30
0
10
105.29994343243276
20
82.325959756715321
30
0
10
101.56881283488546
20
78.911823660692448
30
0
10
97.397742958778721
20
74.471370688738588
30
0
10
93.275695625317923
20
69.645032261310917
30
0
10
89.313515627169338
20
65.005876027897486
30
0
10
85.420843410240508
20
60.062978033376375
30
0
10
81.912242138296122
20
55.331303565962955
30
0
10
81.357750157937943
20
54.583519665060372
30
0
10
80.812763380401478
20
53.841105887883259
30
0
10
80.277262028937145
20
53.104218130905601
30
0
0
SPLINE
5
134
100
AcDbEntity
8
0
100
AcDbSpline
70
0
71
3
72
14
73
10
74
0
42
0.000000001
43
0.0000000001
44
0.0000000001
40
0.56532906297428287
40
0.56532906297428287
40
0.56532906297428287
40
0.56532906297428287
40
0.68628096617755885
40
0.68628096617755885
40
0.68628096617755885
40
0.89374056060951268
40
0.89374056060951268
40
0.89374056060951268
40
1.7418173354324069
40
1.7418173354324069
40
1.7418173354324069
40
1.7418173354324069
10
80.277262028937159
20
53.104218130905579
30
0
10
81.593205692808013
20
53.329553448327005
30
0
10
82.924411169165225
20
53.542795721542319
30
0
10
84.271489065454119
20
53.743515573546659
30
0
10
86.569856303902441
20
54.085981241808234
30
0
10
88.900628091932944
20
54.395157311178664
30
0
10
91.258750742674337
20
54.676493088288368
30
0
10
100.61678258487498
20
55.792952895718258
30
0
10
109.97481442707561
20
56.909412703148163
30
0
10
119.33284626927627
20
58.025872510578047
30
0
0
SPLINE
5
135
100
AcDbEntity
8
0
100
AcDbSpline
70
0
71
3
72
17
73
13
74
0
42
0.000000001
43
0.0000000001
44
0.0000000001
40
-0.3633269753897157
40
-0.3633269753897157
40
-0.3633269753897157
40
-0.3633269753897157
40
0.053927037371973789
40
0.053927037371973789
40
0.053927037371973789
40
0.29915261226503859
40
0.29915261226503859
40
0.29915261226503859
40
0.64957630613251927
40
0.64957630613251927
40
0.64957630613251927
40
0.66135432054488952
40
0.66135432054488952
40
0.66135432054488952
40
0.66135432054488952
10
119.33284626927637
20
58.025872510578189
30
0
10
111.94717373424689
20
52.171721533146894
30
0
10
104.56150119921739
20
46.317570555715619
30
0
10
97.175828664187918
20
40.463419578284345
30
0
10
93.066879762739092
20
37.206518177153399
30
0
10
88.748654666180983
20
33.411994258008811
30
0
10
84.266874755579437
20
29.076207852189626
30
0
10
77.867047656931646
20
22.884854441846429
30
0
10
71.126940317926085
20
15.563952694853542
30
0
10
64.814224492196914
20
7.9454457928786884
30
0
10
64.601929994391426
20
7.6892379828913668
30
0
10
64.390115417235364
20
7.4327147138654244
30
0
10
64.178783475334939
20
7.1758840007793401
30
0
0
LINE
5
136
100
AcDbEntity
8
0
100
AcDbLine
10
64.178783475334939
20
7.1758840007793401
30
0
11
97.289553694986552
21
16.920196889922366
31
0
0
LINE
5
137
100
AcDbEntity
8
0
100
AcDbLine
10
97.289553694986552
20
16.920196889922366
30
0
11
73.565005073099186
21
-2.9791059988117086
31
0
0
LINE
5
138
100
AcDbEntity
8
0
100
AcDbLine
10
73.565005073099186
20
-2.9791059988117086
30
0
11
96.80701308233003
21
0.35245324635619468
31
0
0
SPLINE
5
139
100
AcDbEntity
8
0
100
AcDbSpline
70
0
71
3
72
11
73
7
74
0
42
0.000000001
43
0.0000000001
44
0.0000000001
40
-0.37947802978637535
40
-0.37947802978637535
40
-0.37947802978637535
40
-0.37947802978637535
40
0.051658881228467769
40
0.051658881228467769
40
0.051658881228467769
40
0.63819520250194783
40
0.63819520250194783
40
0.63819520250194783
40
0.63819520250194783
10
96.80701308233003
20
0.3524532463561747
30
0
10
90.821425264596826
20
-5.388575452834524
30
0
10
84.835837446863621
20
-11.129604152025216
30
0
10
78.850249629130417
20
-16.870632851215909
30
0
10
70.803344471184843
20
-24.588757596552384
30
0
10
63.158227093093259
20
-32.307859247167443
30
0
10
56.046144149348713
20
-40.019579074359171
30
0
0
SPLINE
5
140
100
AcDbEntity
8
0
100
AcDbSpline
70
0
71
3
72
11
73
7
74
0
42
0.000000001
43
0.0000000001
44
0.0000000001
40
0.80981896582715096
40
0.80981896582715096
40
0.80981896582715096
40
0.80981896582715096
40
0.85620917625545523
40
0.85620917625545523
40
0.85620917625545523
40
1.9939767190239435
40
1.9939767190239435
40
1.9939767190239435
40
1.9939767190239435
10
56.04614414934872
20
-40.019579074359171
30
0
10
56.424602382051958
20
-39.973184527825588
30
0
10
56.803719885326387
20
-39.927312754917089
30
0
10
57.183502481845913
20
-39.881966178939017
30
0
10
66.294194727115666
20
-38.794136715716782
30
0
10
75.404886972385412
20
-37.706307252494547
30
0
10
84.51557921765513
20
-36.618477789272305
30
0
0
LINE
5
141
100
AcDbEntity
8
0
100
AcDbLine
10
-21.718273220000395
20
118.60628210147036
30
0
11
-11.42105474607116
21
101.11291552074002
31
0
0
LINE
5
142
100
AcDbEntity
8
0
100
AcDbLine
10
18.240733912667466
20
109.35127459562635
30
0
11
9.9519553864504608
21
100.42489772123875
31
0
0
LINE
5
143
100
AcDbEntity
8
0
100
AcDbLine
10
-11.42105474607116
20
101.11291552074002
30
0
11
-11.421054698986662
21
110.24697338249764
31
0
0
LINE
5
144
100
AcDbEntity
8
0
100
AcDbLine
10
9.9519553864504608
20
100.42489772123875
30
0
11
9.9519554370815744
21
110.24697338249764
31
0
0
LINE
5
145
100
AcDbEntity
8
0
100
AcDbLine
10
6.60301578629646
20
121.81971007618783
30
0
11
-8.39698421370354
21
121.81971007618783
31
0
0
LINE
5
146
100
AcDbEntity
8
0
100
AcDbLine
10
-8.39698421370354
20
123.81971007618782
30
0
11
-8.39698421370354
21
136.81971015351027
31
0
0
LINE
5
147
100
AcDbEntity
8
0
100
AcDbLine
10
6.60301578629646
20
136.81971015351027
30
0
11
6.60301578629646
21
123.81971007618785
31
0
0
LINE
5
148
100
AcDbEntity
8
0
100
AcDbLine
10
9.9519555740594594
20
136.81971005892464
30
0
11
6.60301578629646
21
136.81971015351027
31
0
0
LINE
5
149
100
AcDbEntity
8
0
100
AcDbLine
10
-8.39698421370354
20
136.81971015351027
30
0
11
-11.421054562008772
21
136.81971016909884
31
0
0
CIRCLE
5
150
100
AcDbEntity
8
0
100
AcDbCircle
10
8.10301578629646
20
96.819710076187846
30
0
40
2.0000000000000107
210
0
220
0
230
1
0
CIRCLE
5
151
100
AcDbEntity
8
0
100
AcDbCircle
10
-9.89698421370354
20
96.819710076187818
30
0
40
1.9999999999999929
210
0
220
0
230
1
0
LINE
5
152
100
AcDbEntity
8
0
100
AcDbLine
10
6.60301578629646
20
119.81971007618783
30
0
11
8.10301578629646
21
119.81971007618783
31
0
0
LINE
5
153
100
AcDbEntity
8
0
100
AcDbLine
10
8.10301578629646
20
119.81971007618783
30
0
11
8.10301578629646
21
123.81971007618785
31
0
0
LINE
5
154
100
AcDbEntity
8
0
100
AcDbLine
10
8.10301578629646
20
123.81971007618785
30
0
11
6.60301578629646
21
123.81971007618785
31
0
0
LINE
5
155
100
AcDbEntity
8
0
100
AcDbLine
10
6.60301578629646
20
121.81971007618783
30
0
11
6.60301578629646
21
119.81971007618783
31
0
0
LINE
5
156
100
AcDbEntity
8
0
100
AcDbLine
10
-8.39698421370354
20
119.81971007618782
30
0
11
-9.89698421370354
21
119.81971007618782
31
0
0
LINE
5
157
100
AcDbEntity
8
0
100
AcDbLine
10
-9.89698421370354
20
119.81971007618782
30
0
11
-9.89698421370354
21
123.81971007618782
31
0
0
LINE
5
158
100
AcDbEntity
8
0
100
AcDbLine
10
-9.89698421370354
20
123.81971007618782
30
0
11
-8.39698421370354
21
123.81971007618782
31
0
0
LINE
5
159
100
AcDbEntity
8
0
100
AcDbLine
10
-8.39698421370354
20
121.81971007618783
30
0
11
-8.39698421370354
21
119.81971007618782
31
0
0
LINE
5
160
100
AcDbEntity
8
0
100
AcDbLine
10
9.9519555740594594
20
136.81971005892464
30
0
11
13.951955574059461
21
136.81971003830535
31
0
0
LINE
5
161
100
AcDbEntity
8
0
100
AcDbLine
10
-11.421054562008772
20
136.81971016909884
30
0
11
-15.421054562008774
21
136.81971018971814
31
0
0
LINE
5
162
100
AcDbEntity
8
0
100
AcDbLine
10
-15.421054562008774
20
136.81971018971814
30
0
11
-11.421054698986662
21
110.24697338249764
31
0
0
LINE
5
163
100
AcDbEntity
8
0
100
AcDbLine
10
13.951955574059461
20
136.81971003830535
30
0
11
9.9519554370815744
21
110.24697338249764
31
0
0
ENDSEC
0
SECTION
2
OBJECTS
0
DICTIONARY
5
C
100
AcDbDictionary
3
ACAD_GROUP
350
D
3
ACAD_MLINESTYLE
350
17
0
DICTIONARY
5
D
100
AcDbDictionary
0
DICTIONARY
5
1A
330
C
100
AcDbDictionary
0
DICTIONARY
5
17
100
AcDbDictionary
0
ENDSEC
0
EOF
