0
SECTION
2
HEADER
9
$INSUNITS
70
4
9
$ACADVER
1
AC1014
9
$HANDSEED
5
FFFF
0
ENDSEC
0
SECTION
2
TABLES
0
TABLE
2
VPORT
5
8
100
AcDbSymbolTable
0
ENDTAB
0
TABLE
2
LTYPE
5
5
100
AcDbSymbolTable
0
LTYPE
5
14
100
AcDbSymbolTableRecord
100
AcDbLinetypeTableRecord
2
BYBLOCK
70
0
0
LTYPE
5
15
100
AcDbSymbolTableRecord
100
AcDbLinetypeTableRecord
2
BYLAYER
70
0
0
ENDTAB
0
TABLE
2
LAYER
5
2
100
AcDbSymbolTable
70
2
0
LAYER
5
50
100
AcDbSymbolTableRecord
100
AcDbLayerTableRecord
2
0
70
0
6
CONTINUOUS
0
ENDTAB
0
TABLE
2
STYLE
5
3
100
AcDbSymbolTable
70
1
0
STYLE
5
11
100
AcDbSymbolTableRecord
100
AcDbTextStyleTableRecord
2
STANDARD
70
0
0
ENDTAB
0
TABLE
2
VIEW
5
6
100
AcDbSymbolTable
70
0
0
ENDTAB
0
TABLE
2
UCS
5
7
100
AcDbSymbolTable
70
0
0
ENDTAB
0
TABLE
2
APPID
5
9
100
AcDbSymbolTable
70
2
0
APPID
5
12
100
AcDbSymbolTableRecord
100
AcDbRegAppTableRecord
2
ACAD
70
0
0
ENDTAB
0
TABLE
2
DIMSTYLE
5
A
100
AcDbSymbolTable
70
1
0
ENDTAB
0
TABLE
2
BLOCK_RECORD
5
1
100
AcDbSymbolTable
70
1
0
BLOCK_RECORD
5
1F
100
AcDbSymbolTableRecord
100
AcDbBlockTableRecord
2
*MODEL_SPACE
0
BLOCK_RECORD
5
1B
100
AcDbSymbolTableRecord
100
AcDbBlockTableRecord
2
*PAPER_SPACE
0
ENDTAB
0
ENDSEC
0
SECTION
2
BLOCKS
0
BLOCK
5
20
100
AcDbEntity
100
AcDbBlockBegin
2
*MODEL_SPACE
0
ENDBLK
5
21
100
AcDbEntity
100
AcDbBlockEnd
0
BLOCK
5
1C
100
AcDbEntity
100
AcDbBlockBegin
2
*PAPER_SPACE
0
ENDBLK
5
1D
100
AcDbEntity
100
AcDbBlockEnd
0
ENDSEC
0
SECTION
2
ENTITIES
0
SPLINE
5
100
100
AcDbEntity
8
0
100
AcDbSpline
70
0
71
3
72
17
73
13
74
0
42
0.000000001
43
0.0000000001
44
0.0000000001
40
-0.047569061006342533
40
-0.047569061006342533
40
-0.047569061006342533
40
-0.047569061006342533
40
0
40
0
40
0
40
0.3146157864416842
40
0.3146157864416842
40
0.3146157864416842
40
0.65730789322084204
40
0.65730789322084204
40
0.65730789322084204
40
0.92959499217233454
40
0.92959499217233454
40
0.92959499217233454
40
0.92959499217233454
10
115.40955408749832
20
219.484219547121
30
0
10
114.84915247577129
20
218.76532057078157
30
0
10
114.28875086404429
20
218.04642159444222
30
0
10
113.72834925231727
20
217.32752261810279
30
0
10
110.01219374293348
20
212.56033363129569
30
0
10
105.94614151299881
20
207.56117570354374
30
0
10
101.53797164112909
20
202.42893531382208
30
0
10
96.736416584032625
20
196.83869366847222
30
0
10
91.523017072606365
20
191.09787951805686
30
0
10
86.3793636490675
20
186.1879899570369
30
0
10
82.292457528379202
20
182.28682165378248
30
0
10
78.274994439405418
20
178.95001737170674
30
0
10
74.382806046895681
20
176.25535743691808
30
0
0
SPLINE
5
101
100
AcDbEntity
8
0
100
AcDbSpline
70
0
71
3
72
14
73
10
74
0
42
0.000000001
43
0.0000000001
44
0.0000000001
40
0.18772535527090059
40
0.18772535527090059
40
0.18772535527090059
40
0.18772535527090059
40
0.69623034368901071
40
0.69623034368901071
40
0.69623034368901071
40
1
40
1
40
1
40
1.2171891958204846
40
1.2171891958204846
40
1.2171891958204846
40
1.2171891958204846
10
74.382806046895709
20
176.25535743691802
30
0
10
77.547807020656336
20
176.42431618249586
30
0
10
80.651053706607598
20
176.79111146548962
30
0
10
83.697786565318864
20
177.38474369010538
30
0
10
85.517837527338401
20
177.73936647838451
30
0
10
87.322023478493264
20
178.16661942006482
30
0
10
89.110316076430195
20
178.65413273666184
30
0
10
90.404823740978685
20
179.00703344521054
30
0
10
91.699331405527161
20
179.35993415375924
30
0
10
92.993839070075637
20
179.71283486230791
30
0
0
LINE
5
102
100
AcDbEntity
8
0
100
AcDbLine
10
92.993839070075651
20
179.71283486230789
30
0
11
84.190323019477177
21
171.45953856471374
31
0
0
SPLINE
5
103
100
AcDbEntity
8
0
100
AcDbSpline
70
0
71
3
72
14
73
10
74
0
42
0.000000001
43
0.0000000001
44
0.0000000001
40
0.18455956916711505
40
0.18455956916711505
40
0.18455956916711505
40
0.18455956916711505
40
0.65897349686831663
40
0.65897349686831663
40
0.65897349686831663
40
1
40
1
40
1
40
1.1725091378752459
40
1.1725091378752459
40
1.1725091378752459
40
1.1725091378752459
10
84.190323019477077
20
171.45953856471382
30
0
10
86.705080185033296
20
171.86377115577392
30
0
10
89.117944898982643
20
172.54967133441164
30
0
10
91.441231763238605
20
173.57138589579336
30
0
10
93.111297393326922
20
174.3058325967051
30
0
10
94.745120666647935
20
175.19986582849725
30
0
10
96.344063329366691
20
176.2215056470053
30
0
10
97.17244585732513
20
176.75079828222692
30
0
10
98.000828385283569
20
177.28009091744855
30
0
10
98.829210913242008
20
177.80938355267023
30
0
0
SPLINE
5
104
100
AcDbEntity
8
0
100
AcDbSpline
70
0
71
3
72
23
73
19
74
0
42
0.000000001
43
0.0000000001
44
0.0000000001
40
-0.089647830908854698
40
-0.089647830908854698
40
-0.089647830908854698
40
-0.089647830908854698
40
0
40
0
40
0
40
0.20622894352520171
40
0.20622894352520171
40
0.20622894352520171
40
0.42110818961957541
40
0.42110818961957541
40
0.42110818961957541
40
0.64170837548627369
40
0.64170837548627369
40
0.64170837548627369
40
0.88364275114664914
40
0.88364275114664914
40
0.88364275114664914
40
0.93928558545621776
40
0.93928558545621776
40
0.93928558545621776
40
0.93928558545621776
10
98.829210913242065
20
177.80938355267051
30
0
10
98.493610278227877
20
176.88540275194737
30
0
10
98.158009643213688
20
175.96142195122422
30
0
10
97.8224090081995
20
175.03744115050111
30
0
10
97.01050279303972
20
172.80208854229255
30
0
10
95.492488853380522
20
169.80975622597271
30
0
10
93.244385626039602
20
166.00446129195217
30
0
10
90.901985386888356
20
162.039552716987
30
0
10
87.752984794755577
20
157.18351218856156
30
0
10
84.044607725657045
20
151.99057932180477
30
0
10
80.23749891651849
20
146.65938993789982
30
0
10
75.868244561857793
20
141.03569866859053
30
0
10
71.261382694461361
20
135.77178832751326
30
0
10
66.208992347357864
20
129.99880651021658
30
0
10
60.876244750787606
20
124.65529386129955
30
0
10
55.413848548449153
20
119.89950464080785
30
0
10
54.157544205627666
20
118.80571385194315
30
0
10
52.893391513330108
20
117.74122564902471
30
0
10
51.621728754572018
20
116.70579599765026
30
0
0
SPLINE
5
105
100
AcDbEntity
8
0
100
AcDbSpline
70
0
71
3
72
14
73
10
74
0
42
0.000000001
43
0.0000000001
44
0.0000000001
40
0.18751575663412137
40
0.18751575663412137
40
0.18751575663412137
40
0.18751575663412137
40
0.66921938508031564
40
0.66921938508031564
40
0.66921938508031564
40
1
40
1
40
1
40
1.0990688872478123
40
1.0990688872478123
40
1.0990688872478123
40
1.0990688872478123
10
51.621728754571912
20
116.70579599765033
30
0
10
55.872179627491043
20
118.06772671472544
30
0
10
59.893824220630179
20
119.58988600256524
30
0
10
63.64173160049922
20
121.30614829383649
30
0
10
66.215378620294459
20
122.48468684440002
30
0
10
68.676375345840739
20
123.74752661163505
30
0
10
71.042747755721109
20
125.07832140977052
30
0
10
71.758463791708238
20
125.48082406474443
30
0
10
72.47417982769538
20
125.8833267197183
30
0
10
73.189895863682494
20
126.28582937469217
30
0
0
SPLINE
5
106
100
AcDbEntity
8
0
100
AcDbSpline
70
0
71
3
72
14
73
10
74
0
42
0.000000001
43
0.0000000001
44
0.0000000001
40
-0.18313306425425702
40
-0.18313306425425702
40
-0.18313306425425702
40
-0.18313306425425702
40
0
40
0
40
0
40
0.75082638005362368
40
0.75082638005362368
40
0.75082638005362368
40
0.7571640874705784
40
0.7571640874705784
40
0.7571640874705784
40
0.7571640874705784
10
73.18989586368258
20
126.28582937469231
30
0
10
72.957247770596339
20
125.49834432961931
30
0
10
72.724599677510142
20
124.71085928454634
30
0
10
72.49195158442393
20
123.92337423947339
30
0
10
71.524651899982558
20
120.64918434392538
30
0
10
70.363761336045599
20
117.60721343955433
30
0
10
68.953565333683287
20
114.91476851979421
30
0
10
68.941661903142005
20
114.89204165697876
30
0
10
68.929743474247161
20
114.86933705039219
30
0
10
68.917810175725521
20
114.84665468921747
30
0
0
SPLINE
5
107
100
AcDbEntity
8
0
100
AcDbSpline
70
0
71
3
72
14
73
10
74
0
42
0.000000001
43
0.0000000001
44
0.0000000001
40
0.15088395445596578
40
0.15088395445596578
40
0.15088395445596578
40
0.15088395445596578
40
0.69630953521642769
40
0.69630953521642769
40
0.69630953521642769
40
1
40
1
40
1
40
1.1758311217218422
40
1.1758311217218422
40
1.1758311217218422
40
1.1758311217218422
10
68.917810175725521
20
114.84665468921746
30
0
10
72.105746595148062
20
116.20071507335176
30
0
10
75.32326352810783
20
117.87931487161862
30
0
10
78.600242872167627
20
119.93133628347957
30
0
10
80.424849959162245
20
121.07389240533405
30
0
10
82.265509666730097
20
122.31848974948124
30
0
10
84.116658234900996
20
123.64613778616997
30
0
10
85.197153893241733
20
124.42107177262152
30
0
10
86.277649551582442
20
125.19600575907306
30
0
10
87.358145209923208
20
125.97093974552466
30
0
0
SPLINE
5
108
100
AcDbEntity
8
0
100
AcDbSpline
70
0
71
3
72
20
73
16
74
0
42
0.000000001
43
0.0000000001
44
0.0000000001
40
-0.16326024296074276
40
-0.16326024296074276
40
-0.16326024296074276
40
-0.16326024296074276
40
0
40
0
40
0
40
0.4697185993793187
40
0.4697185993793187
40
0.4697185993793187
40
0.95823716488209276
40
0.95823716488209276
40
0.95823716488209276
40
1
40
1
40
1
40
1.0006674551825117
40
1.0006674551825117
40
1.0006674551825117
40
1.0006674551825117
10
87.35814520992318
20
125.97093974552459
30
0
10
86.770992060603305
20
124.77794153500852
30
0
10
86.183838911283431
20
123.58494332449243
30
0
10
85.596685761963556
20
122.39194511397635
30
0
10
83.869879845239296
20
118.8833607336543
30
0
10
81.297519527489698
20
114.76885755511913
30
0
10
77.705280680573793
20
109.8964149984789
30
0
10
73.969266456828848
20
104.82895833099792
30
0
10
69.189383290854508
20
98.989387752814764
30
0
10
63.747485102297752
20
92.654251322773689
30
0
10
63.282264099809886
20
92.11266851126895
30
0
10
62.811895434345814
20
91.567239325012721
30
0
10
62.336397027376911
20
91.017974945617297
30
0
10
62.328810736912821
20
91.009211763527532
30
0
10
62.321224446448753
20
91.000448581437752
30
0
10
62.313638155984528
20
90.991685399347801
30
0
0
SPLINE
5
109
100
AcDbEntity
8
0
100
AcDbSpline
70
0
71
3
72
14
73
10
74
0
42
0.000000001
43
0.0000000001
44
0.0000000001
40
-0.00080469368636525368
40
-0.00080469368636525368
40
-0.00080469368636525368
40
-0.00080469368636525368
40
0
40
0
40
0
40
0.66774553370367107
40
0.66774553370367107
40
0.66774553370367107
40
0.91006440340224337
40
0.91006440340224337
40
0.91006440340224337
40
0.91006440340224337
10
62.313638155982659
20
90.991685399346494
30
0
10
62.305461494223536
20
90.983470329918219
30
0
10
62.297284832464115
20
90.975255260489675
30
0
10
62.28910817070463
20
90.967040191061059
30
0
10
55.48055236297904
20
84.126503023900611
30
0
10
48.635715002148594
20
77.923269983740369
30
0
10
41.748771559582522
20
72.644044607238001
30
0
10
39.249561506578715
20
70.728261031685435
30
0
10
36.746572895327404
20
68.922970423655016
30
0
10
34.240610390381647
20
67.210808456093716
30
0
0
SPLINE
5
110
100
AcDbEntity
8
0
100
AcDbSpline
70
0
71
3
72
20
73
16
74
0
42
0.000000001
43
0.0000000001
44
0.0000000001
40
0.087493005834815452
40
0.087493005834815452
40
0.087493005834815452
40
0.087493005834815452
40
0.26982096539818334
40
0.26982096539818334
40
0.26982096539818334
40
0.59486622933377586
40
0.59486622933377586
40
0.59486622933377586
40
0.85062719570127998
40
0.85062719570127998
40
0.85062719570127998
40
1
40
1
40
1
40
1.0917970486529849
40
1.0917970486529849
40
1.0917970486529849
40
1.0917970486529849
10
34.24061039038164
20
67.210808456093716
30
0
10
36.654799663972383
20
67.32306752078641
30
0
10
39.305039713960106
20
67.624673941464778
30
0
10
42.166975356992168
20
68.130791135296661
30
0
10
47.269092600468063
20
69.03307182359805
30
0
10
53.084139883163893
20
70.603142247626934
30
0
10
58.455690803009489
20
72.711793148216827
30
0
10
62.682280778564987
20
74.370979273671182
30
0
10
66.572574810306861
20
76.353206534162169
30
0
10
69.923577576700225
20
78.584298676573184
30
0
10
71.880673249030863
20
79.887329763349356
30
0
10
73.667465932403417
20
81.275916285838989
30
0
10
75.288208960057858
20
82.744487621098301
30
0
10
76.308042097321277
20
83.668568543599733
30
0
10
77.32787523458471
20
84.592649466101165
30
0
10
78.347708371848128
20
85.516730388602582
30
0
0
LINE
5
111
100
AcDbEntity
8
0
100
AcDbLine
10
78.347708371848128
20
85.516730388602582
30
0
11
71.410499200738499
21
67.050074989467007
31
0
0
SPLINE
5
112
100
AcDbEntity
8
0
100
AcDbSpline
70
0
71
3
72
14
73
10
74
0
42
0.000000001
43
0.0000000001
44
0.0000000001
40
0.083909295414617169
40
0.083909295414617169
40
0.083909295414617169
40
0.083909295414617169
40
0.64843663413858077
40
0.64843663413858077
40
0.64843663413858077
40
1
40
1
40
1
40
1.0904210674301558
40
1.0904210674301558
40
1.0904210674301558
40
1.0904210674301558
10
71.410499200738499
20
67.050074989466992
30
0
10
76.320733112377241
20
69.404473483176488
30
0
10
80.883707373920402
20
72.017322000665615
30
0
10
84.998423099835563
20
74.981015372118335
30
0
10
87.56089122305427
20
76.826676238435681
30
0
10
89.97226200123859
20
78.79829993481178
30
0
10
92.259508292061213
20
80.869216909551767
30
0
10
92.85447209576526
20
81.407908630417296
30
0
10
93.449435899469293
20
81.946600351282825
30
0
10
94.04439970317334
20
82.485292072148368
30
0
0
SPLINE
5
113
100
AcDbEntity
8
0
100
AcDbSpline
70
0
71
3
72
14
73
10
74
0
42
0.000000001
43
0.0000000001
44
0.0000000001
40
-0.11959460010996348
40
-0.11959460010996348
40
-0.11959460010996348
40
-0.11959460010996348
40
0
40
0
40
0
40
0.58851341710667548
40
0.58851341710667548
40
0.58851341710667548
40
0.89618271847018083
40
0.89618271847018083
40
0.89618271847018083
40
0.89618271847018083
10
94.044399703173269
20
82.485292072148312
30
0
10
94.006116913182154
20
81.683603151283421
30
0
10
93.967834123191025
20
80.881914230418559
30
0
10
93.929551333199896
20
80.080225309553668
30
0
10
93.736551661065235
20
76.038573723637597
30
0
10
92.958863874449833
20
71.95991491578522
30
0
10
91.409247048776081
20
67.877389480291768
30
0
10
90.599121888877207
20
65.743083427063198
30
0
10
89.597647414038875
20
63.61475092052666
30
0
10
88.447282062598504
20
61.485943352352962
30
0
0
SPLINE
5
114
100
AcDbEntity
8
0
100
AcDbSpline
70
0
71
3
72
14
73
10
74
0
42
0.000000001
43
0.0000000001
44
0.0000000001
40
0.099448354003084688
40
0.099448354003084688
40
0.099448354003084688
40
0.099448354003084688
40
0.54009469148521472
40
0.54009469148521472
40
0.54009469148521472
40
1
40
1
40
1
40
1.0424616152259643
40
1.0424616152259643
40
1.0424616152259643
40
1.0424616152259643
10
88.447282062598504
20
61.485943352352947
30
0
10
92.008731253194767
20
62.593921837161595
30
0
10
96.046363917827634
20
64.15860188713738
30
0
10
100.64378210259677
20
66.260257253682283
30
0
10
105.44213590424043
20
68.45376796176069
30
0
10
110.7985538134387
20
71.182853949899055
30
0
10
116.52696070089374
20
74.273926586620192
30
0
10
117.05710574982761
20
74.55999510208153
30
0
10
117.5872507987615
20
74.846063617542868
30
0
10
118.11739584769539
20
75.132132133004163
30
0
0
SPLINE
5
115
100
AcDbEntity
8
0
100
AcDbSpline
70
0
71
3
72
14
73
10
74
0
42
0.000000001
43
0.0000000001
44
0.0000000001
40
-0.11972146526581517
40
-0.11972146526581517
40
-0.11972146526581517
40
-0.11972146526581517
40
0
40
0
40
0
40
0.68439655563605462
40
0.68439655563605462
40
0.68439655563605462
40
0.86390469800199976
40
0.86390469800199976
40
0.86390469800199976
40
0.86390469800199976
10
118.11739584769541
20
75.132132133004447
30
0
10
118.0781697766156
20
74.531007949665337
30
0
10
118.03894370553579
20
73.929883766326242
30
0
10
117.99971763445598
20
73.328759582987118
30
0
10
117.77188869324962
20
69.837370247944634
30
0
10
117.24265378152397
20
66.272528415297302
30
0
10
116.32998927769006
20
62.646752962621946
30
0
10
116.09060947903764
20
61.695760134288804
30
0
10
115.828257540858
20
60.741722507439391
30
0
10
115.54600149852951
20
59.784584418294216
30
0
0
SPLINE
5
116
100
AcDbEntity
8
0
100
AcDbSpline
70
0
71
3
72
14
73
10
74
0
42
0.000000001
43
0.0000000001
44
0.0000000001
40
0.21447167506508694
40
0.21447167506508694
40
0.21447167506508694
40
0.21447167506508694
40
0.63686935600363459
40
0.63686935600363459
40
0.63686935600363459
40
1
40
1
40
1
40
1.1054495398249455
40
1.1054495398249455
40
1.1054495398249455
40
1.1054495398249455
10
115.54600149852953
20
59.784584418294202
30
0
10
116.82582378197553
20
60.544800436200994
30
0
10
118.07564631685335
20
61.62317956312787
30
0
10
119.32114100553991
20
63.074721942095465
30
0
10
120.39187910095718
20
64.322596972307124
30
0
10
121.45421966725192
20
65.818512596096255
30
0
10
122.49805640958647
20
67.497159236544817
30
0
10
122.80719043763088
20
67.994293296478872
30
0
10
123.11632446567531
20
68.491427356412942
30
0
10
123.42545849371974
20
68.988561416346997
30
0
0
LINE
5
117
100
AcDbEntity
8
0
100
AcDbLine
10
127.78189051737044
20
60.598396037464191
30
0
11
123.42545849371976
21
68.988561416346997
31
0
0
LINE
5
118
100
AcDbEntity
8
0
100
AcDbLine
10
135.79702774214206
20
74.214862855447407
30
0
11
127.78189051737044
21
60.598396037464191
31
0
0
SPLINE
5
119
100
AcDbEntity
8
0
100
AcDbSpline
70
0
71
3
72
23
73
19
74
0
42
0.000000001
43
0.0000000001
44
0.0000000001
40
0.057189156561924387
40
0.057189156561924387
40
0.057189156561924387
40
0.057189156561924387
40
0.20728590901620966
40
0.20728590901620966
40
0.20728590901620966
40
0.40546443176215724
40
0.40546443176215724
40
0.40546443176215724
40
0.57251669508226832
40
0.57251669508226832
40
0.57251669508226832
40
0.79081678273653688
40
0.79081678273653688
40
0.79081678273653688
40
1
40
1
40
1
40
1.0415373240286736
40
1.0415373240286736
40
1.0415373240286736
40
1.0415373240286736
10
127.5718764435441
20
26.000000013257637
30
0
10
129.1809931913599
20
27.673893564036547
30
0
10
130.53322651810109
20
29.656609515126146
30
0
10
131.64073058895571
20
31.884090758564891
30
0
10
133.10301086556552
20
34.825120028358356
30
0
10
134.13565953413516
20
38.187572387593455
30
0
10
134.97884969605391
20
41.474047195952537
30
0
10
135.68960696180642
20
44.244342621883789
30
0
10
136.28528517316485
20
46.92162113955635
30
0
10
136.77616582443767
20
49.513027950228768
30
0
10
137.41763746373715
20
52.899419266781223
30
0
10
137.83881813080225
20
56.227876215534607
30
0
10
137.77884352669543
20
59.948705393961333
30
0
10
137.72137364303219
20
63.514141518127047
30
0
10
137.23715945607299
20
67.416372718072083
30
0
10
136.33071390764999
20
71.695468207331714
30
0
10
136.15281851914733
20
72.535266423370274
30
0
10
135.97492313064467
20
73.375064639408834
30
0
10
135.79702774214201
20
74.214862855447393
30
0
0
LINE
5
120
100
AcDbEntity
8
0
100
AcDbLine
10
127.5718764435441
20
26.000000013257637
30
0
11
167.41640023806661
21
26.000000218649308
31
0
0
SPLINE
5
121
100
AcDbEntity
8
0
100
AcDbSpline
70
0
71
3
72
23
73
19
74
0
42
0.000000001
43
0.0000000001
44
0.0000000001
40
0.059660184737837636
40
0.059660184737837636
40
0.059660184737837636
40
0.059660184737837636
40
0.20797649344245908
40
0.20797649344245908
40
0.20797649344245908
40
0.41063871536092311
40
0.41063871536092311
40
0.41063871536092311
40
0.56816816904210721
40
0.56816816904210721
40
0.56816816904210721
40
0.80367759783530301
40
0.80367759783530301
40
0.80367759783530301
40
1
40
1
40
1
40
1.0449320975786944
40
1.0449320975786944
40
1.0449320975786944
40
1.0449320975786944
10
167.41640023806661
20
26.000000218649355
30
0
10
166.14266470476846
20
27.579482472492693
30
0
10
165.03556532609173
20
29.517144330861861
30
0
10
164.07280534332759
20
31.813296862470537
30
0
10
162.75727181242144
20
34.95080330383076
30
0
10
161.70846063360403
20
38.782011908436345
30
0
10
160.93032726452475
20
42.535721092964081
30
0
10
160.32548377982496
20
45.453481253289368
30
0
10
159.89018663280132
20
48.270249500988186
30
0
10
159.60290623603453
20
50.839768691990976
30
0
10
159.17341676238374
20
54.681247112724563
30
0
10
159.06177989016803
20
58.045654192416698
30
0
10
159.08414621538117
20
61.668353908860034
30
0
10
159.1027909495472
20
64.688263193587872
30
0
10
159.21661350392952
20
67.88535920436945
30
0
10
159.40520360164834
20
71.322585231312985
30
0
10
159.44820479563666
20
72.106321095253421
30
0
10
159.49120598962497
20
72.890056959193856
30
0
10
159.53420718361326
20
73.673792823134278
30
0
0
LINE
5
122
100
AcDbEntity
8
0
100
AcDbLine
10
159.53420718361326
20
73.673792823134292
30
0
11
173.51049108362449
21
58.622410161583751
31
0
0
SPLINE
5
123
100
AcDbEntity
8
0
100
AcDbSpline
70
0
71
3
72
17
73
13
74
0
42
0.000000001
43
0.0000000001
44
0.0000000001
40
0.14841070904901202
40
0.14841070904901202
40
0.14841070904901202
40
0.14841070904901202
40
0.34755126662779851
40
0.34755126662779851
40
0.34755126662779851
40
0.70215343344994263
40
0.70215343344994263
40
0.70215343344994263
40
1
40
1
40
1
40
1.0504039275019452
40
1.0504039275019452
40
1.0504039275019452
40
1.0504039275019452
10
173.51049108362443
20
58.62241016158368
30
0
10
173.50713617371252
20
59.799828074260702
30
0
10
173.49847561294467
20
61.028252349130341
30
0
10
173.52945070058783
20
62.317014095215271
30
0
10
173.58460688438743
20
64.611864090793901
30
0
10
173.80454848875979
20
67.11932137853114
30
0
10
174.69523283665612
20
69.607444826787258
30
0
10
175.44335932803727
20
71.697333427460904
30
0
10
176.62743420915265
20
73.752016133851754
30
0
10
178.20352891427837
20
75.756296606764678
30
0
10
178.46103847495436
20
76.083765116348985
30
0
10
178.71854803563031
20
76.411233625933278
30
0
10
178.97605759630622
20
76.73870213551757
30
0
0
SPLINE
5
124
100
AcDbEntity
8
0
100
AcDbSpline
70
0
71
3
72
17
73
13
74
0
42
0.000000001
43
0.0000000001
44
0.0000000001
40
-0.057144144674063285
40
-0.057144144674063285
40
-0.057144144674063285
40
-0.057144144674063285
40
0
40
0
40
0
40
0.34256852019521666
40
0.34256852019521666
40
0.34256852019521666
40
0.70067339256709804
40
0.70067339256709804
40
0.70067339256709804
40
0.90610817345754413
40
0.90610817345754413
40
0.90610817345754413
40
0.90610817345754413
10
178.9760575963065
20
76.738702135517343
30
0
10
179.23907097501109
20
76.415637496116503
30
0
10
179.50208435371567
20
76.092572856715663
30
0
10
179.76509773242029
20
75.769508217314822
30
0
10
181.26392256692037
20
73.92847143406199
30
0
10
183.50802009686933
20
71.874626363680278
30
0
10
186.45812664636605
20
69.749360085082827
30
0
10
189.54202801824033
20
67.527707584672982
30
0
10
193.33931816171915
20
65.28579666668449
30
0
10
197.36026148601081
20
63.431319533848011
30
0
10
199.66696456247979
20
62.367457707765467
30
0
10
202.05262569153695
20
61.419589575351416
30
0
10
204.49476046730047
20
60.587263651568222
30
0
0
SPLINE
5
125
100
AcDbEntity
8
0
100
AcDbSpline
70
0
71
3
72
14
73
10
74
0
42
0.000000001
43
0.0000000001
44
0.0000000001
40
0.24678416042750151
40
0.24678416042750151
40
0.24678416042750151
40
0.24678416042750151
40
0.52740593475077546
40
0.52740593475077546
40
0.52740593475077546
40
1
40
1
40
1
40
1.0941824044752517
40
1.0941824044752517
40
1.0941824044752517
40
1.0941824044752517
10
204.49476046730044
20
60.587263651568165
30
0
10
203.65786806915909
20
61.822668658747091
30
0
10
202.93309926266437
20
63.273870961423917
30
0
10
202.32051924187968
20
64.934517283610845
30
0
10
201.28887555346225
20
67.731205453073414
30
0
10
200.55274977071383
20
71.082903223696405
30
0
10
199.99484309184095
20
74.832339276236169
30
0
10
199.88497686253942
20
75.570700039243775
30
0
10
199.77511063323792
20
76.309060802251366
30
0
10
199.66524440393638
20
77.047421565258958
30
0
0
SPLINE
5
126
100
AcDbEntity
8
0
100
AcDbSpline
70
0
71
3
72
17
73
13
74
0
42
0.000000001
43
0.0000000001
44
0.0000000001
40
-0.083372357240129924
40
-0.083372357240129924
40
-0.083372357240129924
40
-0.083372357240129924
40
0
40
0
40
0
40
0.30817471086359632
40
0.30817471086359632
40
0.30817471086359632
40
0.65408735543179808
40
0.65408735543179808
40
0.65408735543179808
40
0.81757748106598338
40
0.81757748106598338
40
0.81757748106598338
40
0.81757748106598338
10
199.66524440393636
20
77.047421565259015
30
0
10
200.28836505610468
20
76.636364564915439
30
0
10
200.91148570827301
20
76.225307564571864
30
0
10
201.53460636044133
20
75.814250564228274
30
0
10
203.79870472105878
20
74.320681899219792
30
0
10
206.65285451774889
20
72.669763247783806
30
0
10
210.02509299013195
20
70.916085828526974
30
0
10
213.81028329607165
20
68.947659567609122
30
0
10
218.25163758110307
20
66.85201296915308
30
0
10
222.17185971902157
20
65.156518929301015
30
0
10
224.02469054179264
20
64.35517056016738
30
0
10
225.75105365252784
20
63.647095199999939
30
0
10
227.30500404669257
20
63.050257531891738
30
0
0
SPLINE
5
127
100
AcDbEntity
8
0
100
AcDbSpline
70
0
71
3
72
14
73
10
74
0
42
0.000000001
43
0.0000000001
44
0.0000000001
40
0.22764952837036861
40
0.22764952837036861
40
0.22764952837036861
40
0.22764952837036861
40
0.51819866169294415
40
0.51819866169294415
40
0.51819866169294415
40
1
40
1
40
1
40
1.1102222355180376
40
1.1102222355180376
40
1.1102222355180376
40
1.1102222355180376
10
227.3050040466926
20
63.050257531891759
30
0
10
225.76929108773439
20
64.668700108129201
30
0
10
224.25183350291306
20
66.560602438050466
30
0
10
222.75143473687086
20
68.741764470544354
30
0
10
220.26340758219749
20
72.358663183346124
30
0
10
217.82347210379427
20
76.719232009223589
30
0
10
215.40209032600785
20
81.589603608800431
30
0
10
214.85142251632712
20
82.697217817214067
30
0
10
214.30075470664639
20
83.804832025627704
30
0
10
213.7500868969658
20
84.912446234041354
30
0
0
SPLINE
5
128
100
AcDbEntity
8
0
100
AcDbSpline
70
0
71
3
72
17
73
13
74
0
42
0.000000001
43
0.0000000001
44
0.0000000001
40
-0.086061328306091589
40
-0.086061328306091589
40
-0.086061328306091589
40
-0.086061328306091589
40
0
40
0
40
0
40
0.29708512274526411
40
0.29708512274526411
40
0.29708512274526411
40
0.64854256137263211
40
0.64854256137263211
40
0.64854256137263211
40
0.92869681173074192
40
0.92869681173074192
40
0.92869681173074192
40
0.92869681173074192
10
213.7500868969654
20
84.912446234041397
30
0
10
214.78273506819104
20
84.231504220531548
30
0
10
215.81538323941669
20
83.550562207021684
30
0
10
216.84803141064234
20
82.869620193511821
30
0
10
220.38866501859115
20
80.534879044223942
30
0
10
223.8996691234733
20
78.417343024206104
30
0
10
227.48756602666052
20
76.558147103054694
30
0
10
231.73211736602357
20
74.35868241658298
30
0
10
236.12631629867863
20
72.533817952133958
30
0
10
241.65341199066393
20
71.074733505488851
30
0
10
246.05917832269313
20
69.911666048571448
30
0
10
251.17459971734024
20
68.97473085602067
30
0
10
256.96717019677237
20
68.233151552419784
30
0
0
SPLINE
5
129
100
AcDbEntity
8
0
100
AcDbSpline
70
0
71
3
72
20
73
16
74
0
42
0.000000001
43
0.0000000001
44
0.0000000001
40
0.087379688098417799
40
0.087379688098417799
40
0.087379688098417799
40
0.087379688098417799
40
0.24868238096131398
40
0.24868238096131398
40
0.24868238096131398
40
0.48685257063764109
40
0.48685257063764109
40
0.48685257063764109
40
0.71548215110064572
40
0.71548215110064572
40
0.71548215110064572
40
1
40
1
40
1
40
1.038909672327311
40
1.038909672327311
40
1.038909672327311
40
1.038909672327311
10
256.96717019677226
20
68.233151552419713
30
0
10
254.44675843548032
20
69.939694898515015
30
0
10
251.80163318023034
20
72.062743970566999
30
0
10
249.03782655476925
20
74.591739328868513
30
0
10
244.9569501817117
20
78.325907019975759
30
0
10
240.60559776283725
20
82.974035860986277
30
0
10
236.3308891808893
20
87.979119166953254
30
0
10
232.22741665554705
20
92.783709103169585
30
0
10
228.2311596897091
20
97.859631837681917
30
0
10
224.62462416958488
20
102.72337972857132
30
0
10
220.13647470927961
20
108.77606584513683
30
0
10
216.23498962089263
20
114.51261996149975
30
0
10
212.92730113922306
20
119.83942967575059
30
0
10
212.47721448959192
20
120.56426393713778
30
0
10
212.02712783996074
20
121.28909819852497
30
0
10
211.57704119032957
20
122.01393245991216
30
0
0
SPLINE
5
130
100
AcDbEntity
8
0
100
AcDbSpline
70
0
71
3
72
14
73
10
74
0
42
0.000000001
43
0.0000000001
44
0.0000000001
40
-0.087401152675073368
40
-0.087401152675073368
40
-0.087401152675073368
40
-0.087401152675073368
40
0
40
0
40
0
40
0.68628096617755885
40
0.68628096617755885
40
0.68628096617755885
40
0.89374056060951268
40
0.89374056060951268
40
0.89374056060951268
40
0.89374056060951268
10
211.57704119032954
20
122.01393245991225
30
0
10
212.39928818727262
20
121.78617694477583
30
0
10
213.2215351842157
20
121.55842142963942
30
0
10
214.04378218115878
20
121.33066591450302
30
0
10
220.46260271108235
20
119.55270651568982
30
0
10
227.26924007802128
20
118.07950578100446
30
0
10
234.58896686045787
20
116.98883798775326
30
0
10
236.801686758687
20
116.65913410669103
30
0
10
239.05573733780943
20
116.35999552322831
30
0
10
241.34493278366949
20
116.08688310496009
30
0
0
SPLINE
5
131
100
AcDbEntity
8
0
100
AcDbSpline
70
0
71
3
72
20
73
16
74
0
42
0.000000001
43
0.0000000001
44
0.0000000001
40
0.053927037371973789
40
0.053927037371973789
40
0.053927037371973789
40
0.053927037371973789
40
0.29915261226503859
40
0.29915261226503859
40
0.29915261226503859
40
0.64957630613251927
40
0.64957630613251927
40
0.64957630613251927
40
0.97139413265559971
40
0.97139413265559971
40
0.97139413265559971
40
1
40
1
40
1
40
1.0675356777931044
40
1.0675356777931044
40
1.0675356777931044
40
1.0675356777931044
10
241.34493278366949
20
116.08688310496012
30
0
10
237.00427760006329
20
119.52744327944382
30
0
10
232.49354433466897
20
123.49463188329807
30
0
10
227.84290723453995
20
127.99377497362251
30
0
10
221.19721609007016
20
134.42298343459706
30
0
10
214.28255690313281
20
141.93760864028602
30
0
10
207.79260994628899
20
149.77000709589913
30
0
10
201.83245182783881
20
156.96302940449152
30
0
10
196.24946171600104
20
164.38716102648044
30
0
10
191.09254582770174
20
171.87998534334409
30
0
10
190.63415589510942
20
172.54601040714746
30
0
10
190.17897902486428
20
173.21283285336892
30
0
10
189.72700688161112
20
173.8804544690642
30
0
10
188.66334029515869
20
175.45162830269288
30
0
10
187.59967370870626
20
177.02280213632156
30
0
10
186.53600712225384
20
178.59397596995024
30
0
0
SPLINE
5
132
100
AcDbEntity
8
0
100
AcDbSpline
70
0
71
3
72
14
73
10
74
0
42
0.000000001
43
0.0000000001
44
0.0000000001
40
-0.17236513082465255
40
-0.17236513082465255
40
-0.17236513082465255
40
-0.17236513082465255
40
0
40
0
40
0
40
0.6124663476933454
40
0.6124663476933454
40
0.6124663476933454
40
0.79542818482582378
40
0.79542818482582378
40
0.79542818482582378
40
0.79542818482582378
10
186.53600712225364
20
178.59397596995018
30
0
10
188.07150812337852
20
177.47943099635808
30
0
10
189.60700912450338
20
176.36488602276592
30
0
10
191.14251012562821
20
175.25034104917378
30
0
10
196.550917141751
20
171.32464327981748
30
0
10
201.91055690697652
20
168.13824252003019
30
0
10
207.20165394768355
20
166.02614939674692
30
0
10
208.78226133723217
20
165.39520462813039
30
0
10
210.35918187852332
20
164.85361177700685
30
0
10
211.93432232603504
20
164.39005682908271
30
0
0
SPLINE
5
133
100
AcDbEntity
8
0
100
AcDbSpline
70
0
71
3
72
14
73
10
74
0
42
0.000000001
43
0.0000000001
44
0.0000000001
40
0.24012922943328424
40
0.24012922943328424
40
0.24012922943328424
40
0.24012922943328424
40
0.52825498705670537
40
0.52825498705670537
40
0.52825498705670537
40
1
40
1
40
1
40
1.1211737137093114
40
1.1211737137093114
40
1.1211737137093114
40
1.1211737137093114
10
211.93432232603493
20
164.39005682908265
30
0
10
210.19955697302345
20
165.84511596426933
30
0
10
208.6085644766876
20
167.56097479111492
30
0
10
207.1882080094141
20
169.54949324456402
30
0
10
204.86267458413184
20
172.80527180215611
30
0
10
202.97902632727943
20
176.73974253989962
30
0
10
201.38045959095285
20
181.1538590265705
30
0
10
200.97556693018691
20
182.2718876509656
30
0
10
200.57067426942098
20
183.38991627536072
30
0
10
200.1657816086551
20
184.50794489975578
30
0
0
SPLINE
5
134
100
AcDbEntity
8
0
100
AcDbSpline
70
0
71
3
72
14
73
10
74
0
42
0.000000001
43
0.0000000001
44
0.0000000001
40
-0.14417117696269127
40
-0.14417117696269127
40
-0.14417117696269127
40
-0.14417117696269127
40
0
40
0
40
0
40
0.61469157982833433
40
0.61469157982833433
40
0.61469157982833433
40
0.88610061554746822
40
0.88610061554746822
40
0.88610061554746822
40
0.88610061554746822
10
200.16578160865535
20
184.50794489975539
30
0
10
201.09283344018436
20
183.76329667853463
30
0
10
202.01988527171338
20
183.0186484573139
30
0
10
202.94693710324242
20
182.2740002360932
30
0
10
206.81492872755848
20
179.16706167582632
30
0
10
211.04346799465915
20
176.78536683232244
30
0
10
215.82387860246615
20
175.34811611099673
30
0
10
217.93460644710126
20
174.71351683363139
30
0
10
220.15047834483508
20
174.2465372562055
30
0
10
222.45103658698105
20
173.91677030673949
30
0
0
SPLINE
5
135
100
AcDbEntity
8
0
100
AcDbSpline
70
0
71
3
72
14
73
10
74
0
42
0.000000001
43
0.0000000001
44
0.0000000001
40
0.051658881228467769
40
0.051658881228467769
40
0.051658881228467769
40
0.051658881228467769
40
0.67712642428981096
40
0.67712642428981096
40
0.67712642428981096
40
1
40
1
40
1
40
1.0528211428604886
40
1.0528211428604886
40
1.0528211428604886
40
1.0528211428604886
10
222.45103658698105
20
173.91677030673952
30
0
10
213.76750518317925
20
182.24551002581183
30
0
10
205.52073202789373
20
190.59937403322465
30
0
10
197.867848248473
20
198.98036469458111
30
0
10
193.91734117937358
20
203.30672895255907
30
0
10
190.10732529622419
20
207.63843081425597
30
0
10
186.41204057335588
20
211.97542093996145
30
0
10
185.80866629926388
20
212.68357429351704
30
0
10
185.20529202517181
20
213.3917276470726
30
0
10
184.60191775107978
20
214.09988100062816
30
0
0
SPLINE
5
136
100
AcDbEntity
8
0
100
AcDbSpline
70
0
71
3
72
11
73
7
74
0
42
0.000000001
43
0.0000000001
44
0.0000000001
40
-0.12149657071186004
40
-0.12149657071186004
40
-0.12149657071186004
40
-0.12149657071186004
40
0
40
0
40
0
40
0.85620917625545523
40
0.85620917625545523
40
0.85620917625545523
40
0.85620917625545523
10
184.60191775107941
20
214.09988100062822
30
0
10
185.51772111927738
20
213.93603388412785
30
0
10
186.43352448747544
20
213.77218676762752
30
0
10
187.34932785567344
20
213.60833965112715
30
0
10
193.78573302687428
20
212.45679722995851
30
0
10
200.41433072007717
20
211.46388129090235
30
0
10
207.27043973111321
20
210.64525223566881
30
0
0
SPLINE
5
137
100
AcDbEntity
8
0
100
AcDbSpline
70
0
71
3
72
20
73
16
74
0
42
0.000000001
43
0.0000000001
44
0.0000000001
40
0.056062014054067813
40
0.056062014054067813
40
0.056062014054067813
40
0.056062014054067813
40
0.30553787912879654
40
0.30553787912879654
40
0.30553787912879654
40
0.6527689395643983
40
0.6527689395643983
40
0.6527689395643983
40
0.96637195290550948
40
0.96637195290550948
40
0.96637195290550948
40
1
40
1
40
1
40
1.0492052898670059
40
1.0492052898670059
40
1.0492052898670059
40
1.0492052898670059
10
207.27043973111319
20
210.64525223566875
30
0
10
203.21113799673893
20
213.95830639126163
30
0
10
199.22801592774141
20
217.58483908038247
30
0
10
195.38121369197358
20
221.52926905716325
30
0
10
190.02707164215406
20
227.01929352602838
30
0
10
184.94334911842574
20
233.1419010573951
30
0
10
180.85348770002514
20
239.29112790318726
30
0
10
177.15971427045648
20
244.8448248165316
30
0
10
174.31671071212327
20
250.3743349941436
30
0
10
172.35374320765683
20
255.75746637203454
30
0
10
172.1432517235927
20
256.33470634674944
30
0
10
171.94261425623981
20
256.91059759165046
30
0
10
171.75181183794226
20
257.4851628285345
30
0
10
171.47715506460366
20
258.31223952621571
30
0
10
171.20249829126499
20
259.13931622389686
30
0
10
170.92784151792642
20
259.96639292157806
30
0
0
SPLINE
5
138
100
AcDbEntity
8
0
100
AcDbSpline
70
0
71
3
72
17
73
13
74
0
42
0.000000001
43
0.0000000001
44
0.0000000001
40
-0.11336001750370434
40
-0.11336001750370434
40
-0.11336001750370434
40
-0.11336001750370434
40
0
40
0
40
0
40
0.388664627717419
40
0.388664627717419
40
0.388664627717419
40
0.79073211260580289
40
0.79073211260580289
40
0.79073211260580289
40
0.80060842411911937
40
0.80060842411911937
40
0.80060842411911937
40
0.80060842411911937
10
170.92784151792665
20
259.96639292157789
30
0
10
171.6843370042815
20
259.53371892638921
30
0
10
172.44083249063635
20
259.10104493120053
30
0
10
173.1973279769912
20
258.6683709360118
30
0
10
175.75325231978002
20
257.20652216527674
30
0
10
178.43016709240351
20
255.9010334247086
30
0
10
181.12202142303985
20
254.81648289862389
30
0
10
183.90670267062629
20
253.69453232437635
30
0
10
186.66192757867591
20
252.82497636572447
30
0
10
188.76930858958929
20
252.31636959425057
30
0
10
188.82107390790847
20
252.30387627135914
30
0
10
188.87248306852896
20
252.2915893754305
30
0
10
188.92352346474212
20
252.27951089089697
30
0
0
SPLINE
5
139
100
AcDbEntity
8
0
100
AcDbSpline
70
0
71
3
72
17
73
13
74
0
42
0.000000001
43
0.0000000001
44
0.0000000001
40
0.040689841387334079
40
0.040689841387334079
40
0.040689841387334079
40
0.040689841387334079
40
0.25929143735412202
40
0.25929143735412202
40
0.25929143735412202
40
0.49827456002070936
40
0.49827456002070936
40
0.49827456002070936
40
0.72431980668819351
40
0.72431980668819351
40
0.72431980668819351
40
0.96701064935235637
40
0.96701064935235637
40
0.96701064935235637
40
0.96701064935235637
10
188.92352346474206
20
252.27951089089689
30
0
10
185.73289483086054
20
256.21994445688483
30
0
10
182.36306450807524
20
260.87286947102035
30
0
10
178.83439569258206
20
266.22786298533339
30
0
10
174.97672810029755
20
272.0821343882937
30
0
10
170.92321093505774
20
278.79633713315513
30
0
10
166.9958636807026
20
285.77319061542704
30
0
10
163.28113199189579
20
292.37233681774404
30
0
10
159.71099010795746
20
299.14667005495585
30
0
10
156.52506335168044
20
305.61387737593873
30
0
10
153.10453024803792
20
312.55731908750892
30
0
10
150.11402492905012
20
319.16124179811339
30
0
10
147.55283699825949
20
325.37295550735843
30
0
0
SPLINE
5
140
100
AcDbEntity
8
0
100
AcDbSpline
70
0
71
3
72
14
73
10
74
0
42
0.000000001
43
0.0000000001
44
0.0000000001
40
0.028336187633243613
40
0.028336187633243613
40
0.028336187633243613
40
0.028336187633243613
40
0.36494642653915554
40
0.36494642653915554
40
0.36494642653915554
40
0.78254638773504004
40
0.78254638773504004
40
0.78254638773504004
40
0.97358602167561281
40
0.97358602167561281
40
0.97358602167561281
40
0.97358602167561281
10
147.55283699825947
20
325.37295550735843
30
0
10
144.11756995338084
20
315.24778917033791
30
0
10
140.23429771673526
20
305.73803343872135
30
0
10
135.87913539068583
20
296.89634862337101
30
0
10
130.47610420461314
20
285.92732032584325
30
0
10
124.37422632785356
20
275.98200386683072
30
0
10
118.04465424483233
20
266.48641059505911
30
0
10
115.14906218041247
20
262.1424574550901
30
0
10
112.20050433806522
20
257.89507194120495
30
0
10
109.20787172797878
20
253.72908012128943
30
0
0
SPLINE
5
141
100
AcDbEntity
8
0
100
AcDbSpline
70
0
71
3
72
14
73
10
74
0
42
0.000000001
43
0.0000000001
44
0.0000000001
40
0.12118739671727465
40
0.12118739671727465
40
0.12118739671727465
40
0.12118739671727465
40
0.72571066845372267
40
0.72571066845372267
40
0.72571066845372267
40
1
40
1
40
1
40
1.1321787609967389
40
1.1321787609967389
40
1.1321787609967389
40
1.1321787609967389
10
109.20787172797884
20
253.72908012128931
30
0
10
112.70636191557796
20
254.01728896198634
30
0
10
116.23098510535365
20
254.63302605914521
30
0
10
119.81858970695868
20
255.62846051205349
30
0
10
121.44638753383141
20
256.08011731908101
30
0
10
123.08614896946324
20
256.60009273927619
30
0
10
124.73353024147528
20
257.17797566410388
30
0
10
125.53667796762278
20
257.45971090350474
30
0
10
126.33982569377027
20
257.74144614290555
30
0
10
127.14297341991775
20
258.02318138230635
30
0
0
SPLINE
5
142
100
AcDbEntity
8
0
100
AcDbSpline
70
0
71
3
72
17
73
13
74
0
42
0.000000001
43
0.0000000001
44
0.0000000001
40
-0.063797873467464544
40
-0.063797873467464544
40
-0.063797873467464544
40
-0.063797873467464544
40
0
40
0
40
0
40
0.31179441665000368
40
0.31179441665000368
40
0.31179441665000368
40
0.65589720832500187
40
0.65589720832500187
40
0.65589720832500187
40
0.93613535015102689
40
0.93613535015102689
40
0.93613535015102689
40
0.93613535015102689
10
127.14297341991812
20
258.02318138230692
30
0
10
126.74476445335773
20
257.27095094282214
30
0
10
126.34655548679734
20
256.51872050333742
30
0
10
125.94834652023694
20
255.76649006385267
30
0
10
123.97926747208197
20
252.04683198943016
30
0
10
121.39508553351024
20
247.81513623205041
30
0
10
118.18847067128684
20
243.14094601797237
30
0
10
114.64958393376
20
237.98241265241285
30
0
10
110.36700091158372
20
232.32889357247544
30
0
10
105.82567214331958
20
227.05977927089316
30
0
10
102.12720306306457
20
222.76859990045955
30
0
10
98.273549461945876
20
218.745598103833
30
0
10
94.337272591347997
20
215.04794975842103
30
0
0
LINE
5
143
100
AcDbEntity
8
0
100
AcDbLine
10
94.337272591347997
20
215.04794975842103
30
0
11
115.40955408749832
21
219.484219547121
31
0
0
ENDSEC
0
SECTION
2
OBJECTS
0
DICTIONARY
5
C
100
AcDbDictionary
3
ACAD_GROUP
350
D
3
ACAD_MLINESTYLE
350
17
0
DICTIONARY
5
D
100
AcDbDictionary
0
DICTIONARY
5
1A
330
C
100
AcDbDictionary
0
DICTIONARY
5
17
100
AcDbDictionary
0
ENDSEC
0
EOF
